<svg width="24" height="24" viewBox="0 0 24 24" fill="none" xmlns="http://www.w3.org/2000/svg">
<g clip-path="url(#clip0_745_3903)">
<path d="M18.2029 16.5001H5.89686C5.52746 16.5064 5.16808 16.3798 4.88411 16.1435C4.60014 15.9072 4.41047 15.5767 4.34961 15.2123L3.01311 7.71232C2.98549 7.49496 3.00516 7.27421 3.07076 7.06516C3.13637 6.85612 3.24637 6.66371 3.39322 6.50111C3.54008 6.33852 3.72033 6.20957 3.92164 6.12309C4.12296 6.03661 4.34057 5.99465 4.55961 6.00007H20.9389C21.175 5.99367 21.4093 6.04265 21.6231 6.14309C21.8369 6.24353 22.0242 6.39263 22.17 6.57846C22.3158 6.76428 22.416 6.98167 22.4627 7.21321C22.5094 7.44475 22.5012 7.684 22.4389 7.91182L19.7029 15.4118C19.6031 15.7304 19.4032 16.0083 19.133 16.2043C18.8628 16.4003 18.5367 16.504 18.2029 16.5001Z" fill="#D9D9D9"/>
<path d="M6 22.5C6.82843 22.5 7.5 21.8284 7.5 21C7.5 20.1716 6.82843 19.5 6 19.5C5.17157 19.5 4.5 20.1716 4.5 21C4.5 21.8284 5.17157 22.5 6 22.5Z" fill="#D9D9D9"/>
<path d="M18 22.5C18.8284 22.5 19.5 21.8284 19.5 21C19.5 20.1716 18.8284 19.5 18 19.5C17.1716 19.5 16.5 20.1716 16.5 21C16.5 21.8284 17.1716 22.5 18 22.5Z" fill="#D9D9D9"/>
<path d="M22.5 18.75H3C2.80109 18.75 2.61032 18.671 2.46967 18.5303C2.32902 18.3897 2.25 18.1989 2.25 18C2.25 17.8011 2.32902 17.6103 2.46967 17.4697C2.61032 17.329 2.80109 17.25 3 17.25H18.2032C18.6908 17.2544 19.167 17.1036 19.5633 16.8196C19.9595 16.5355 20.2551 16.1329 20.4075 15.6698L23.1577 8.1255C23.2568 7.79582 23.2768 7.44742 23.2159 7.1086C23.1551 6.76977 23.0151 6.45008 22.8075 6.1755C22.5906 5.8854 22.3085 5.65045 21.9839 5.48966C21.6593 5.32887 21.3014 5.24677 20.9392 5.25H5.13525L4.4895 1.37625C4.46023 1.20126 4.36986 1.04232 4.23447 0.927658C4.09908 0.813 3.92742 0.750052 3.75 0.75H1.5C1.30109 0.75 1.11032 0.829018 0.96967 0.96967C0.829018 1.11032 0.75 1.30109 0.75 1.5C0.75 1.69891 0.829018 1.88968 0.96967 2.03033C1.11032 2.17098 1.30109 2.25 1.5 2.25H3.11475L3.6465 5.43975C3.31784 5.57529 3.02515 5.78531 2.7915 6.05325C2.58131 6.29664 2.42651 6.58278 2.3378 6.89189C2.2491 7.201 2.22861 7.52569 2.27775 7.8435L3.6105 15.3232C3.63312 15.4689 3.67056 15.6119 3.72225 15.75H3C2.40326 15.75 1.83097 15.9871 1.40901 16.409C0.987053 16.831 0.75 17.4033 0.75 18C0.75 18.5967 0.987053 19.169 1.40901 19.591C1.83097 20.0129 2.40326 20.25 3 20.25H3.888C3.79916 20.4902 3.75247 20.7439 3.75 21C3.75 21.5967 3.98705 22.169 4.40901 22.591C4.83097 23.0129 5.40326 23.25 6 23.25C6.59674 23.25 7.16903 23.0129 7.59099 22.591C8.01295 22.169 8.25 21.5967 8.25 21C8.24753 20.7439 8.20084 20.4902 8.112 20.25H15.888C15.7992 20.4902 15.7525 20.7439 15.75 21C15.75 21.5967 15.9871 22.169 16.409 22.591C16.831 23.0129 17.4033 23.25 18 23.25C18.5967 23.25 19.169 23.0129 19.591 22.591C20.0129 22.169 20.25 21.5967 20.25 21C20.2475 20.7439 20.2008 20.4902 20.112 20.25H22.5C22.6989 20.25 22.8897 20.171 23.0303 20.0303C23.171 19.8897 23.25 19.6989 23.25 19.5C23.25 19.3011 23.171 19.1103 23.0303 18.9697C22.8897 18.829 22.6989 18.75 22.5 18.75ZM5.091 15.0802L3.75825 7.602C3.74318 7.50049 3.75054 7.39692 3.77983 7.29857C3.80912 7.20021 3.85961 7.10948 3.92775 7.03275C4.00672 6.94287 4.10414 6.87108 4.21339 6.82228C4.32263 6.77348 4.44111 6.74883 4.56075 6.75H20.9392C21.0681 6.74792 21.1956 6.77624 21.3114 6.83266C21.4273 6.88909 21.5282 6.97203 21.606 7.07475C21.6704 7.15524 21.7155 7.2494 21.7379 7.35003C21.7602 7.45065 21.7592 7.55506 21.735 7.65525L18.9847 15.1995C18.9304 15.3627 18.8252 15.5043 18.6846 15.6034C18.5439 15.7024 18.3752 15.7538 18.2032 15.75H5.89725C5.70477 15.754 5.5173 15.6885 5.36922 15.5655C5.22113 15.4425 5.12235 15.2702 5.091 15.0802ZM6.75 21C6.75 21.1483 6.70601 21.2933 6.6236 21.4167C6.54119 21.54 6.42406 21.6361 6.28701 21.6929C6.14997 21.7497 5.99917 21.7645 5.85368 21.7356C5.7082 21.7066 5.57456 21.6352 5.46967 21.5303C5.36478 21.4254 5.29335 21.2918 5.26441 21.1463C5.23547 21.0008 5.25032 20.85 5.30709 20.713C5.36386 20.5759 5.45998 20.4588 5.58332 20.3764C5.70666 20.294 5.85166 20.25 6 20.25C6.19891 20.25 6.38968 20.329 6.53033 20.4697C6.67098 20.6103 6.75 20.8011 6.75 21ZM18.75 21C18.75 21.1483 18.706 21.2933 18.6236 21.4167C18.5412 21.54 18.4241 21.6361 18.287 21.6929C18.15 21.7497 17.9992 21.7645 17.8537 21.7356C17.7082 21.7066 17.5746 21.6352 17.4697 21.5303C17.3648 21.4254 17.2933 21.2918 17.2644 21.1463C17.2355 21.0008 17.2503 20.85 17.3071 20.713C17.3639 20.5759 17.46 20.4588 17.5833 20.3764C17.7067 20.294 17.8517 20.25 18 20.25C18.1989 20.25 18.3897 20.329 18.5303 20.4697C18.671 20.6103 18.75 20.8011 18.75 21Z" fill="#ED7E3B"/>
<path d="M12 14.25C12.1989 14.25 12.3897 14.171 12.5303 14.0303C12.671 13.8897 12.75 13.6989 12.75 13.5V9C12.75 8.80109 12.671 8.61032 12.5303 8.46967C12.3897 8.32902 12.1989 8.25 12 8.25C11.8011 8.25 11.6103 8.32902 11.4697 8.46967C11.329 8.61032 11.25 8.80109 11.25 9V13.5C11.25 13.6989 11.329 13.8897 11.4697 14.0303C11.6103 14.171 11.8011 14.25 12 14.25Z" fill="#ED7E3B"/>
<path d="M15.75 14.25C15.9489 14.25 16.1397 14.171 16.2803 14.0303C16.421 13.8897 16.5 13.6989 16.5 13.5V9C16.5 8.80109 16.421 8.61032 16.2803 8.46967C16.1397 8.32902 15.9489 8.25 15.75 8.25C15.5511 8.25 15.3603 8.32902 15.2197 8.46967C15.079 8.61032 15 8.80109 15 9V13.5C15 13.6989 15.079 13.8897 15.2197 14.0303C15.3603 14.171 15.5511 14.25 15.75 14.25Z" fill="#ED7E3B"/>
<path d="M8.25 14.25C8.44891 14.25 8.63968 14.171 8.78033 14.0303C8.92098 13.8897 9 13.6989 9 13.5V9C9 8.80109 8.92098 8.61032 8.78033 8.46967C8.63968 8.32902 8.44891 8.25 8.25 8.25C8.05109 8.25 7.86032 8.32902 7.71967 8.46967C7.57902 8.61032 7.5 8.80109 7.5 9V13.5C7.5 13.6989 7.57902 13.8897 7.71967 14.0303C7.86032 14.171 8.05109 14.25 8.25 14.25Z" fill="#ED7E3B"/>
</g>
<defs>
<clipPath id="clip0_745_3903">
<rect width="24" height="24" fill="white"/>
</clipPath>
</defs>
</svg>
