<svg width="24" height="24" viewBox="0 0 24 24" fill="none" xmlns="http://www.w3.org/2000/svg">
<path fill-rule="evenodd" clip-rule="evenodd" d="M4.75 1C4.06547 1 3.5 1.56547 3.5 2.25V8.56544L1.55664 9.86134C1.2097 10.0926 1 10.4837 1 10.9014V21.75C1 22.4345 1.56547 23 2.25 23H21.75C22.4345 23 23 22.4345 23 21.75V10.9014C23 10.4837 22.7903 10.0926 22.4434 9.86134L20.5 8.56544V2.25C20.5 1.56547 19.9345 1 19.25 1H4.75ZM4.75 2H19.25C19.3935 2 19.5 2.10653 19.5 2.25V11.4092C17.2587 12.6116 13.4653 14.6463 12.1182 15.3692C12.0437 15.4092 11.9563 15.4092 11.8818 15.3692C10.5347 14.6463 6.74136 12.6116 4.5 11.4092V2.25C4.5 2.10653 4.60653 2 4.75 2ZM3.5 9.76856V10.8721C3.31061 10.7705 2.66758 10.4258 2.58203 10.3799L3.5 9.76856ZM20.5 9.76856L21.418 10.3799C21.3324 10.4258 20.6894 10.7705 20.5 10.8721V9.76856ZM9.96778 15.4766C10.4531 15.737 11.1461 16.1089 11.4092 16.25C11.7777 16.448 12.2223 16.448 12.5908 16.25C12.8539 16.1089 13.5469 15.737 14.0322 15.4766L21.2295 22H2.77051L9.96778 15.4766Z" fill="#C77CBD"/>
<path d="M11 3C9.90136 3 9 3.90136 9 5C9 6.09865 9.90136 7 11 7C12.0986 7 13 6.09865 13 5C13 3.90136 12.0986 3 11 3Z" fill="#C77CBD"/>
<path d="M10.9997 7.5C9.08761 7.5 7.48076 8.84758 7.09051 10.6494C7.01184 11.0126 7.11341 11.3549 7.28484 11.6299C7.45629 11.9049 7.70491 12.132 8.03289 12.2461C10.066 12.9536 12.0594 12.8779 13.9577 12.2383C14.2859 12.1277 14.538 11.9033 14.7116 11.6299C14.8852 11.3564 14.9876 11.0131 14.9089 10.6494C14.5186 8.84757 12.9118 7.5 10.9997 7.5Z" fill="#C77CBD"/>
<path d="M15 5.5C14.8674 5.5 14.7402 5.55268 14.6464 5.64645C14.5527 5.74021 14.5 5.86739 14.5 6V6.5H14C13.8674 6.5 13.7402 6.55268 13.6464 6.64645C13.5527 6.74021 13.5 6.86739 13.5 7C13.5 7.13261 13.5527 7.25979 13.6464 7.35355C13.7402 7.44732 13.8674 7.5 14 7.5H14.5V8C14.5 8.13261 14.5527 8.25979 14.6464 8.35355C14.7402 8.44732 14.8674 8.5 15 8.5C15.1326 8.5 15.2598 8.44732 15.3536 8.35355C15.4473 8.25979 15.5 8.13261 15.5 8V7.5H16C16.1326 7.5 16.2598 7.44732 16.3536 7.35355C16.4473 7.25979 16.5 7.13261 16.5 7C16.5 6.86739 16.4473 6.74021 16.3536 6.64645C16.2598 6.55268 16.1326 6.5 16 6.5H15.5V6C15.5 5.86739 15.4473 5.74021 15.3536 5.64645C15.2598 5.55268 15.1326 5.5 15 5.5Z" fill="#C77CBD"/>
</svg>
