<svg width="24" height="24" viewBox="0 0 24 24" fill="none" xmlns="http://www.w3.org/2000/svg">
<g clip-path="url(#clip0_745_4629)">
<path d="M19.099 3.7297C17.0594 4.55807 15.6337 6.40479 15.3529 8.5993C15.3223 8.83849 15.5086 9.05013 15.7501 9.05013C15.9484 9.05013 16.1206 8.90274 16.1464 8.7009C16.3902 6.79568 17.6253 5.19169 19.4 4.47087C19.6047 4.38777 19.7032 4.15448 19.6201 3.94979C19.5371 3.74515 19.3037 3.64656 19.099 3.7297Z" fill="#974577"/>
<path d="M5.98648 4.3773C5.80804 4.247 5.5578 4.286 5.42755 4.46444C5.29731 4.64284 5.33631 4.89308 5.5147 5.02337C6.7016 5.89008 7.40427 7.17258 7.45072 8.61307C7.45782 8.83376 7.64281 9.0073 7.8634 8.99995C8.08419 8.9928 8.25744 8.80806 8.25029 8.58727C8.19454 6.86079 7.33772 5.36406 5.98648 4.3773Z" fill="#974577"/>
<path d="M14.632 2.26829C14.5951 2.27964 14.5465 2.29509 14.4883 2.31539C14.2797 2.38798 14.1694 2.61602 14.2421 2.82467C14.315 3.03401 14.5436 3.1433 14.7514 3.07085C14.7983 3.05456 14.8374 3.04211 14.8672 3.03291C15.0783 2.96801 15.1968 2.74422 15.1319 2.53303C15.067 2.32189 14.843 2.20329 14.632 2.26829Z" fill="#974577"/>
<path d="M12.8926 4.5577C13.007 4.36876 12.9466 4.12277 12.7576 4.00837C12.5688 3.89388 12.3228 3.95437 12.2084 4.14327C11.7687 4.86929 11.5587 5.70845 11.601 6.57002C11.6115 6.78396 11.7883 6.95035 12.0002 6.95035C12.2299 6.95035 12.4112 6.75841 12.4 6.53072C12.366 5.8391 12.541 5.13833 12.8926 4.5577Z" fill="#974577"/>
<path d="M22.8499 7.65026H22.3999V7.20028C22.3999 6.97939 22.2208 6.80029 21.9999 6.80029C21.7791 6.80029 21.6 6.97939 21.6 7.20028V7.65026H21.15C20.9291 7.65026 20.75 7.82935 20.75 8.05024C20.75 8.27113 20.9291 8.45022 21.15 8.45022H21.6V8.90021C21.6 9.1211 21.7791 9.30019 21.9999 9.30019C22.2208 9.30019 22.3999 9.1211 22.3999 8.90021V8.45022H22.8499C23.0708 8.45022 23.2499 8.27113 23.2499 8.05024C23.2499 7.82935 23.0708 7.65026 22.8499 7.65026Z" fill="#974577"/>
<path d="M11.8001 1.65042C12.021 1.65042 12.2001 1.47133 12.2001 1.25044C12.2001 1.02955 12.021 0.850453 11.8001 0.850453H11.3501V0.400472C11.3501 0.179581 11.171 0.000488281 10.9501 0.000488281C10.7293 0.000488281 10.5502 0.179581 10.5502 0.400472V0.850453H10.1002C9.87929 0.850453 9.7002 1.02955 9.7002 1.25044C9.7002 1.47133 9.87929 1.65042 10.1002 1.65042H10.5502V2.1004C10.5502 2.32129 10.7293 2.50038 10.9501 2.50038C11.171 2.50038 11.3501 2.32129 11.3501 2.1004V1.65042H11.8001Z" fill="#974577"/>
<path d="M2.85089 2.50052C3.07178 2.50052 3.25087 2.32142 3.25087 2.10053C3.25087 1.87964 3.07178 1.70055 2.85089 1.70055H2.40091V1.25057C2.40091 1.02968 2.22182 0.850586 2.00092 0.850586C1.78003 0.850586 1.60094 1.02968 1.60094 1.25057V1.70055H1.15096C0.930069 1.70055 0.750977 1.87964 0.750977 2.10053C0.750977 2.32142 0.930069 2.50052 1.15096 2.50052H1.60094V2.9505C1.60094 3.17139 1.78003 3.35048 2.00092 3.35048C2.22182 3.35048 2.40091 3.17139 2.40091 2.9505V2.50052H2.85089Z" fill="#974577"/>
<path d="M4.58399 7.11638C4.42775 6.96023 4.17456 6.96023 4.01831 7.11638L3.70018 7.43451L3.38204 7.11638C3.2258 6.96023 2.97261 6.96023 2.81636 7.11638C2.66017 7.27262 2.66017 7.52581 2.81636 7.68205L3.1345 8.00019L2.81636 8.31832C2.66017 8.47457 2.66017 8.72776 2.81636 8.884C2.97266 9.0402 3.2258 9.04015 3.38204 8.884L3.70018 8.56586L4.01831 8.884C4.17461 9.0402 4.42775 9.04015 4.58399 8.884C4.74018 8.72776 4.74018 8.47457 4.58399 8.31832L4.26585 8.00019L4.58399 7.68205C4.74018 7.52586 4.74018 7.27262 4.58399 7.11638Z" fill="#974577"/>
<path d="M20.7339 1.56857L20.4157 1.25043L20.7339 0.932296C20.8901 0.776052 20.8901 0.522863 20.7339 0.366619C20.5776 0.210476 20.3244 0.210476 20.1682 0.366619L19.8501 0.684756L19.5319 0.366619C19.3757 0.210476 19.1225 0.210476 18.9662 0.366619C18.8101 0.522863 18.8101 0.776052 18.9662 0.932296L19.2844 1.25043L18.9662 1.56857C18.7135 1.82141 18.8959 2.25139 19.2491 2.25139C19.3515 2.25139 19.4538 2.21234 19.5319 2.13425L19.8501 1.81611L20.1682 2.13425C20.2463 2.21234 20.3486 2.25139 20.451 2.25139C20.8042 2.25144 20.9865 1.82136 20.7339 1.56857Z" fill="#974577"/>
<path d="M6.03054 2.25346C6.11644 2.45961 6.35178 2.554 6.55302 2.46996C6.76011 2.38366 6.85301 2.14792 6.76951 1.94748C6.65821 1.68094 6.31568 1.61889 6.11704 1.81748C5.99574 1.94208 5.97209 2.11272 6.03054 2.25346Z" fill="#974577"/>
<path d="M8.77017 3.44741C8.67117 3.21037 8.38358 3.12992 8.17869 3.26791C7.994 3.38981 7.9465 3.64205 8.06819 3.82239C8.18699 4.00273 8.43793 4.05758 8.62267 3.93289C8.78052 3.82889 8.84336 3.62305 8.77017 3.44741Z" fill="#974577"/>
<path d="M21.6779 4.93278C21.8616 5.05647 22.1128 5.00397 22.2324 4.82228C22.3566 4.63824 22.3029 4.387 22.1219 4.2678C21.9166 4.12921 21.6291 4.21086 21.5304 4.4473C21.4566 4.62524 21.5214 4.82943 21.6779 4.93278Z" fill="#974577"/>
<path d="M13.2695 8.44727C13.1581 8.18053 12.8155 8.11873 12.617 8.31727C12.5439 8.39032 12.5 8.49317 12.5 8.60026C12.5 8.92045 12.86 9.10954 13.1219 8.9327C13.2801 8.8286 13.3427 8.62311 13.2695 8.44727Z" fill="#974577"/>
<path d="M22.4 14.9998V22.7995C22.4 23.4622 21.8627 23.9995 21.2 23.9995H12.8004C12.5795 23.9995 12.4004 23.8204 12.4004 23.5995V14.9998C12.4004 14.7789 12.5795 14.5999 12.8004 14.5999H22C22.2209 14.5999 22.4 14.7789 22.4 14.9998Z" fill="#974577"/>
<path d="M23.9561 11.2311L22.7623 13.5812C22.6941 13.7154 22.5563 13.8 22.4057 13.8H1.59445C1.44385 13.8 1.30606 13.7154 1.23781 13.5812L0.0440611 11.2311C-0.0925332 10.9624 0.105809 10.6501 0.400546 10.6501H10.4001C10.5506 10.6501 10.6886 10.7346 10.7566 10.8691L11.8218 12.966C11.8959 13.1119 12.1043 13.1119 12.1784 12.966L13.2436 10.8691C13.3116 10.7346 13.4496 10.6501 13.6 10.6501H23.5996C23.895 10.6501 24.0922 10.9632 23.9561 11.2311Z" fill="#974577"/>
<path d="M11.6002 14.9998V23.5995C11.6002 23.8204 11.4211 23.9995 11.2002 23.9995H2.80054C2.13781 23.9995 1.60059 23.4622 1.60059 22.7995V14.9998C1.60059 14.7789 1.77968 14.5999 2.00057 14.5999H11.2002C11.4211 14.5999 11.6002 14.7789 11.6002 14.9998Z" fill="#974577"/>
</g>
<defs>
<clipPath id="clip0_745_4629">
<rect width="24" height="24" fill="white"/>
</clipPath>
</defs>
</svg>
