<svg width="551" height="133" viewBox="0 0 551 133" fill="none" xmlns="http://www.w3.org/2000/svg">
<path d="M32 28L272 98L527.5 34" stroke="#55449E" stroke-width="2" stroke-dasharray="4 4"/>
<path d="M526.692 7.88386C527.931 6.52474 530.07 6.52474 531.309 7.88386L534.024 10.8615C534.46 11.3393 535.033 11.6701 535.664 11.8085L539.601 12.6708C541.397 13.0644 542.467 14.917 541.909 16.6698L540.688 20.5097C540.492 21.1258 540.492 21.7875 540.688 22.4036L541.909 26.2436C542.467 27.9963 541.397 29.849 539.601 30.2426L535.664 31.1049C535.033 31.2432 534.46 31.5741 534.024 32.0518L531.309 35.0295C530.07 36.3886 527.931 36.3886 526.692 35.0295L523.977 32.0518C523.541 31.5741 522.968 31.2432 522.337 31.1049L518.401 30.2426C516.604 29.849 515.534 27.9963 516.092 26.2436L517.313 22.4036C517.509 21.7875 517.509 21.1258 517.313 20.5097L516.092 16.6698C515.534 14.917 516.604 13.0644 518.401 12.6708L522.337 11.8085C522.968 11.6701 523.541 11.3393 523.977 10.8615L526.692 7.88386Z" fill="#493495" fill-opacity="0.75"/>
<path d="M520.214 11.4003C520.608 9.60372 522.46 8.53409 524.213 9.09155L528.053 10.3128C528.669 10.5088 529.331 10.5088 529.947 10.3128L533.787 9.09155C535.54 8.53409 537.392 9.60372 537.786 11.4003L538.648 15.3365C538.787 15.968 539.117 16.5411 539.595 16.9767L542.573 19.6916C543.932 20.9307 543.932 23.07 542.573 24.3092L539.595 27.024C539.117 27.4596 538.787 28.0327 538.648 28.6642L537.786 32.6004C537.392 34.397 535.54 35.4666 533.787 34.9092L529.947 33.6879C529.331 33.4919 528.669 33.4919 528.053 33.6879L524.213 34.9092C522.46 35.4666 520.608 34.397 520.214 32.6004L519.352 28.6642C519.213 28.0327 518.883 27.4596 518.405 27.024L515.427 24.3092C514.068 23.07 514.068 20.9307 515.427 19.6916L518.405 16.9767C518.883 16.5411 519.213 15.968 519.352 15.3365L520.214 11.4003Z" fill="#493495" fill-opacity="0.55"/>
<path d="M269.692 96.8839C270.931 95.5247 273.07 95.5247 274.309 96.8839L277.024 99.8615C277.46 100.339 278.033 100.67 278.664 100.808L282.601 101.671C284.397 102.064 285.467 103.917 284.909 105.67L283.688 109.51C283.492 110.126 283.492 110.788 283.688 111.404L284.909 115.244C285.467 116.996 284.397 118.849 282.601 119.243L278.664 120.105C278.033 120.243 277.46 120.574 277.024 121.052L274.309 124.029C273.07 125.389 270.931 125.389 269.692 124.029L266.977 121.052C266.541 120.574 265.968 120.243 265.337 120.105L261.401 119.243C259.604 118.849 258.534 116.996 259.092 115.244L260.313 111.404C260.509 110.788 260.509 110.126 260.313 109.51L259.092 105.67C258.534 103.917 259.604 102.064 261.401 101.671L265.337 100.808C265.968 100.67 266.541 100.339 266.977 99.8615L269.692 96.8839Z" fill="#493495" fill-opacity="0.75"/>
<path d="M263.214 100.4C263.608 98.6037 265.46 97.5341 267.213 98.0915L271.053 99.3128C271.669 99.5088 272.331 99.5088 272.947 99.3128L276.787 98.0915C278.54 97.5341 280.392 98.6037 280.786 100.4L281.648 104.337C281.787 104.968 282.117 105.541 282.595 105.977L285.573 108.692C286.932 109.931 286.932 112.07 285.573 113.309L282.595 116.024C282.117 116.46 281.787 117.033 281.648 117.664L280.786 121.6C280.392 123.397 278.54 124.467 276.787 123.909L272.947 122.688C272.331 122.492 271.669 122.492 271.053 122.688L267.213 123.909C265.46 124.467 263.608 123.397 263.214 121.6L262.352 117.664C262.213 117.033 261.883 116.46 261.405 116.024L258.427 113.309C257.068 112.07 257.068 109.931 258.427 108.692L261.405 105.977C261.883 105.541 262.213 104.968 262.352 104.337L263.214 100.4Z" fill="#493495" fill-opacity="0.55"/>
<path d="M19.6918 11.8839C20.931 10.5247 23.0703 10.5247 24.3094 11.8839L27.0243 14.8615C27.4599 15.3393 28.0329 15.6701 28.6645 15.8085L32.6006 16.6708C34.3973 17.0644 35.4669 18.917 34.9094 20.6698L33.6881 24.5097C33.4922 25.1258 33.4922 25.7875 33.6881 26.4036L34.9094 30.2436C35.4669 31.9963 34.3973 33.849 32.6006 34.2426L28.6645 35.1049C28.0329 35.2432 27.4599 35.5741 27.0243 36.0518L24.3094 39.0295C23.0703 40.3886 20.931 40.3886 19.6918 39.0295L16.977 36.0518C16.5414 35.5741 15.9683 35.2432 15.3368 35.1049L11.4006 34.2426C9.604 33.849 8.53437 31.9963 9.09182 30.2436L10.3131 26.4036C10.5091 25.7875 10.5091 25.1258 10.3131 24.5097L9.09182 20.6698C8.53437 18.917 9.604 17.0644 11.4006 16.6708L15.3368 15.8085C15.9683 15.6701 16.5414 15.3393 16.977 14.8615L19.6918 11.8839Z" fill="#493495" fill-opacity="0.75"/>
<path d="M13.2141 15.4003C13.6077 13.6037 15.4604 12.5341 17.2131 13.0915L21.053 14.3128C21.6691 14.5088 22.3309 14.5088 22.947 14.3128L26.7869 13.0915C28.5396 12.5341 30.3923 13.6037 30.7859 15.4003L31.6482 19.3365C31.7865 19.968 32.1174 20.5411 32.5952 20.9767L35.5728 23.6916C36.9319 24.9307 36.9319 27.07 35.5728 28.3092L32.5952 31.024C32.1174 31.4596 31.7865 32.0327 31.6482 32.6642L30.7859 36.6004C30.3923 38.397 28.5396 39.4666 26.7869 38.9092L22.947 37.6879C22.3309 37.4919 21.6691 37.4919 21.053 37.6879L17.2131 38.9092C15.4604 39.4666 13.6077 38.397 13.2141 36.6004L12.3518 32.6642C12.2135 32.0327 11.8826 31.4596 11.4048 31.024L8.42718 28.3092C7.06806 27.07 7.06806 24.9307 8.42718 23.6916L11.4048 20.9767C11.8826 20.5411 12.2135 19.968 12.3518 19.3365L13.2141 15.4003Z" fill="#493495" fill-opacity="0.55"/>
</svg>
