<svg width="44" height="44" viewBox="0 0 44 44" fill="none" xmlns="http://www.w3.org/2000/svg">
<path d="M19.6908 7.88386C20.93 6.52474 23.0693 6.52474 24.3084 7.88386L27.0233 10.8615C27.4589 11.3393 28.032 11.6701 28.6635 11.8085L32.5997 12.6708C34.3963 13.0644 35.4659 14.917 34.9085 16.6698L33.6872 20.5097C33.4912 21.1258 33.4912 21.7875 33.6872 22.4036L34.9085 26.2436C35.4659 27.9963 34.3963 29.849 32.5997 30.2426L28.6635 31.1049C28.032 31.2432 27.4589 31.5741 27.0233 32.0518L24.3085 35.0295C23.0693 36.3886 20.93 36.3886 19.6908 35.0295L16.976 32.0518C16.5404 31.5741 15.9673 31.2432 15.3358 31.1049L11.3996 30.2426C9.60302 29.849 8.53339 27.9963 9.09084 26.2436L10.3121 22.4036C10.5081 21.7875 10.5081 21.1258 10.3121 20.5097L9.09084 16.6698C8.53339 14.917 9.60302 13.0644 11.3996 12.6708L15.3358 11.8085C15.9673 11.6701 16.5404 11.3393 16.976 10.8615L19.6908 7.88386Z" fill="#FFC827" fill-opacity="0.75"/>
<path d="M13.2141 11.4003C13.6077 9.60372 15.4604 8.53409 17.2131 9.09155L21.053 10.3128C21.6691 10.5088 22.3309 10.5088 22.947 10.3128L26.7869 9.09155C28.5396 8.53409 30.3923 9.60372 30.7859 11.4003L31.6482 15.3365C31.7865 15.968 32.1174 16.5411 32.5952 16.9767L35.5728 19.6916C36.9319 20.9307 36.9319 23.07 35.5728 24.3092L32.5952 27.024C32.1174 27.4596 31.7865 28.0327 31.6482 28.6642L30.7859 32.6004C30.3923 34.397 28.5396 35.4666 26.7869 34.9092L22.947 33.6879C22.3309 33.4919 21.6691 33.4919 21.053 33.6879L17.2131 34.9092C15.4604 35.4666 13.6077 34.397 13.2141 32.6004L12.3518 28.6642C12.2135 28.0327 11.8826 27.4596 11.4048 27.024L8.42718 24.3092C7.06806 23.07 7.06806 20.9307 8.42718 19.6916L11.4048 16.9767C11.8826 16.5411 12.2135 15.968 12.3518 15.3365L13.2141 11.4003Z" fill="#FFC827" fill-opacity="0.55"/>
</svg>
