<svg width="44" height="45" viewBox="0 0 44 45" fill="none" xmlns="http://www.w3.org/2000/svg">
<path d="M19.6908 8.50105C20.93 7.14192 23.0693 7.14192 24.3084 8.50105L27.0233 11.4787C27.4589 11.9565 28.032 12.2873 28.6635 12.4257L32.5997 13.288C34.3963 13.6816 35.4659 15.5342 34.9085 17.2869L33.6872 21.1269C33.4912 21.743 33.4912 22.4047 33.6872 23.0208L34.9085 26.8608C35.4659 28.6135 34.3963 30.4662 32.5997 30.8598L28.6635 31.7221C28.032 31.8604 27.4589 32.1913 27.0233 32.669L24.3085 35.6467C23.0693 37.0058 20.93 37.0058 19.6908 35.6467L16.976 32.669C16.5404 32.1913 15.9673 31.8604 15.3358 31.7221L11.3996 30.8598C9.60302 30.4662 8.53339 28.6135 9.09084 26.8608L10.3121 23.0208C10.5081 22.4047 10.5081 21.743 10.3121 21.1269L9.09084 17.2869C8.53339 15.5342 9.60302 13.6816 11.3996 13.288L15.3358 12.4257C15.9673 12.2873 16.5404 11.9565 16.976 11.4787L19.6908 8.50105Z" fill="#D0CFCC" fill-opacity="0.75"/>
<path d="M13.2141 12.0175C13.6077 10.2209 15.4604 9.15128 17.2131 9.70873L21.053 10.93C21.6691 11.126 22.3309 11.126 22.947 10.93L26.7869 9.70873C28.5396 9.15128 30.3923 10.2209 30.7859 12.0175L31.6482 15.9537C31.7865 16.5852 32.1174 17.1583 32.5952 17.5939L35.5728 20.3087C36.9319 21.5479 36.9319 23.6872 35.5728 24.9263L32.5952 27.6412C32.1174 28.0768 31.7865 28.6498 31.6482 29.2814L30.7859 33.2175C30.3923 35.0142 28.5396 36.0838 26.7869 35.5263L22.947 34.305C22.3309 34.1091 21.6691 34.1091 21.053 34.305L17.2131 35.5263C15.4604 36.0838 13.6077 35.0142 13.2141 33.2175L12.3518 29.2814C12.2135 28.6498 11.8826 28.0768 11.4048 27.6412L8.42718 24.9263C7.06806 23.6872 7.06806 21.5479 8.42718 20.3087L11.4048 17.5939C11.8826 17.1583 12.2135 16.5852 12.3518 15.9537L13.2141 12.0175Z" fill="#C8C7C6" fill-opacity="0.55"/>
</svg>
