<svg width="54" height="51" viewBox="0 0 54 51" fill="none" xmlns="http://www.w3.org/2000/svg">
<path d="M38.9155 38.146C39.1935 37.131 38.9752 35.9703 38.7462 34.9802L38.7809 34.9288L36.8759 26.8004L43.071 20.3729C43.5034 19.8936 43.926 19.4084 44.3359 18.9124C44.816 18.3282 45.4886 17.2981 44.5394 16.8076C43.5871 16.3174 42.3257 16.2373 41.2378 16.2095L41.2003 16.1706L32.3617 15.7033L28.0855 8.59973L28.0077 8.58276C27.4792 7.71141 26.823 6.72209 25.9089 6.17329C24.9987 5.6257 24.3084 6.64731 23.9631 7.30673C23.6077 7.98411 23.2793 8.66907 22.9631 9.36257C22.8865 9.53211 22.8042 9.69835 22.7357 9.87031L22.6806 9.85989L19.4984 16.7629L10.9751 18.6351L10.9719 18.6397C10.9108 18.6516 10.8489 18.6645 10.787 18.6775L10.0777 18.8332C9.20223 19.0438 8.30732 19.3404 7.61228 19.8424C6.6792 20.5166 7.48357 21.4667 8.04244 21.9868C8.61681 22.5215 9.2091 23.0346 9.81597 23.5392C9.96313 23.6611 10.1061 23.7888 10.2597 23.9038L10.2572 23.9075L16.0644 28.5182L15.0893 35.7816L15.0926 35.7827C15.0613 35.9702 15.047 36.1579 15.026 36.3466C14.94 37.1225 14.8705 37.8935 14.8296 38.67C14.7898 39.4249 14.873 40.6568 16.0224 40.5155C17.1764 40.3742 18.3315 39.7179 19.3029 39.1181L19.3136 39.1201L26.8046 34.7221L35.7435 38.2914C36.0638 38.4119 36.3844 38.5268 36.7094 38.639C37.4222 38.8839 38.6398 39.1576 38.9155 38.146Z" fill="#ED9335"/>
<path d="M39.228 37.7644C39.5063 36.7492 39.0942 34.5482 39.0942 34.5482L37.1883 26.4199L43.383 19.9921C43.8162 19.5132 44.2389 19.0292 44.6485 18.5314C45.1286 17.9472 45.8014 16.9163 44.8519 16.4273C43.9001 15.9368 41.5129 15.7899 41.5129 15.7899L32.6734 15.3221L28.3984 8.21944C28.3984 8.21944 27.1358 6.34127 26.2213 5.79283C25.3105 5.24577 24.6204 6.26684 24.2756 6.92644C23.9204 7.60364 23.5913 8.28896 23.2753 8.98263C23.1989 9.15024 23.116 9.31806 23.0478 9.48915L22.9937 9.48012L19.8112 16.3831L11.2877 18.2548L11.2845 18.259C11.2241 18.272 10.3899 18.4526 10.3899 18.4526C9.51465 18.6627 8.61956 18.959 7.92469 19.4616C6.99198 20.1358 7.79636 21.0856 8.35486 21.6056C8.92974 22.1416 9.52241 22.6546 10.1284 23.1587C10.2748 23.2802 10.4185 23.4076 10.5725 23.5233L10.5699 23.5277L16.3769 28.137L15.4013 35.4001L15.4046 35.4015C15.3736 35.5885 15.3594 35.7781 15.3385 35.9667C15.2523 36.7408 15.1827 37.5125 15.1416 38.2895C15.1018 39.0437 15.185 40.2764 16.3345 40.1351C17.4877 39.993 18.6435 39.3363 19.6151 38.7371L19.6261 38.7389L27.1159 34.3402L36.0551 37.9102C36.3746 38.0295 36.6966 38.1469 37.0209 38.2573C37.7345 38.5018 38.9515 38.7768 39.228 37.7644Z" fill="#F8CB36"/>
<path d="M37.783 35.4302C38.0244 34.5511 37.8346 33.5446 37.6361 32.6878L37.6671 32.643L36.0157 25.6014L41.3843 20.0315C41.7591 19.616 42.1252 19.1962 42.4797 18.7653C42.896 18.2587 43.4787 17.3663 42.657 16.9425C41.8312 16.5163 40.739 16.4492 39.7953 16.4247L39.7631 16.3904L32.1034 15.9842L28.3993 9.82932L28.3319 9.81615C27.8742 9.06096 27.306 8.20332 26.5134 7.72743C25.7248 7.25397 25.127 8.13789 24.8272 8.709C24.5196 9.29769 24.2351 9.89118 23.961 10.4923C23.8937 10.6369 23.8229 10.7829 23.7637 10.9306L23.7167 10.9226L20.9595 16.905L13.5746 18.526L13.5712 18.53C13.5188 18.5401 13.4648 18.5513 13.4108 18.5621L12.796 18.6963C12.0372 18.8788 11.2618 19.1368 10.6603 19.5719C9.85163 20.1564 10.5488 20.9785 11.0334 21.4298C11.5306 21.893 12.0438 22.3378 12.5697 22.774C12.6967 22.8804 12.8206 22.991 12.9548 23.0913L12.9518 23.0943L17.9839 27.089L17.1384 33.382L17.1416 33.3829C17.1141 33.5457 17.1018 33.7093 17.0842 33.8719C17.0094 34.5436 16.9494 35.2128 16.914 35.8856C16.8789 36.5392 16.9504 37.6068 17.9474 37.4849C18.9467 37.3619 19.9484 36.7921 20.7895 36.2737L20.799 36.2749L27.2888 32.4638L35.0347 35.5563C35.3117 35.661 35.5906 35.7614 35.8721 35.8581C36.4899 36.0692 37.544 36.307 37.783 35.4302Z" fill="#FFF060"/>
<path d="M41.4889 16.5498L32.1125 15.975C32.1125 15.975 27.9545 8.82237 27.0058 8.01585L31.0517 16.2461C31.0517 16.2461 31.1596 16.9885 32.2011 16.9738C33.2417 16.9585 41.4889 16.5498 41.4889 16.5498Z" fill="white"/>
<path d="M16.6296 26.0648L17.9724 27.099L16.926 35.1616L18.3536 27.3724C18.3536 27.3724 18.564 27.1027 18.0683 26.8143C17.5729 26.5255 16.6296 26.0648 16.6296 26.0648Z" fill="white"/>
</svg>
