<svg width="60" height="60" viewBox="0 0 60 60" fill="none" xmlns="http://www.w3.org/2000/svg">
<g opacity="0.88">
<rect width="60" height="60" rx="30" fill="#EA5455"/>
<path d="M40.0612 37.938C40.343 38.2198 40.5013 38.602 40.5013 39.0005C40.5013 39.399 40.343 39.7812 40.0612 40.063C39.7794 40.3448 39.3972 40.5031 38.9987 40.5031C38.6002 40.5031 38.218 40.3448 37.9362 40.063L29.9999 32.1242L22.0612 40.0605C21.7794 40.3423 21.3972 40.5006 20.9987 40.5006C20.6002 40.5006 20.218 40.3423 19.9362 40.0605C19.6544 39.7787 19.4961 39.3965 19.4961 38.998C19.4961 38.5995 19.6544 38.2173 19.9362 37.9355L27.8749 29.9992L19.9387 22.0605C19.6569 21.7787 19.4986 21.3965 19.4986 20.998C19.4986 20.5995 19.6569 20.2173 19.9387 19.9355C20.2205 19.6537 20.6027 19.4954 21.0012 19.4954C21.3997 19.4954 21.7819 19.6537 22.0637 19.9355L29.9999 27.8742L37.9387 19.9342C38.2205 19.6524 38.6027 19.4941 39.0012 19.4941C39.3997 19.4941 39.7819 19.6524 40.0637 19.9342C40.3455 20.216 40.5038 20.5982 40.5038 20.9967C40.5038 21.3953 40.3455 21.7775 40.0637 22.0592L32.1249 29.9992L40.0612 37.938Z" fill="white"/>
</g>
</svg>
