<svg width="98" height="106" viewBox="0 0 98 106" fill="none" xmlns="http://www.w3.org/2000/svg">
<path d="M14.0248 91.4359C17.7392 89.6814 18.2832 85.3256 18.7261 82.012C18.9805 80.109 19.1961 78.1527 20.2547 76.3304C20.7735 75.4373 21.4521 74.6392 22.2528 73.9855C22.5104 73.7752 24.2978 72.433 24.6771 72.7644C23.7641 71.9667 21.1318 74.0666 20.2167 74.861C19.2258 75.7212 17.5185 77.5601 17.2273 78.8643C16.851 77.6459 17.7316 75.1467 18.1879 73.8586C18.8925 71.8701 20.0044 69.2174 21.2428 67.3952C24.0206 63.3083 28.6792 61.1317 32.8458 61.4753C41.1851 62.163 45.1596 72.7947 38.1182 80.5118C36.2374 82.5731 33.8918 83.9471 31.4075 84.5587C29.056 85.1377 25.6743 85.2622 24.5395 88.2862C23.9795 86.6563 26.0763 83.0049 27.6802 81.629C28.4054 81.0069 29.2518 80.3969 30.096 80.0698C30.9488 79.7394 31.5833 79.5697 32.2902 79.379C31.4457 79.2473 31.8661 79.261 30.8799 79.2919C30.1292 79.3153 28.9214 79.7866 27.9948 80.1893C26.3804 80.8909 23.6764 83.4741 22.6903 84.9786C20.5088 88.307 17.9737 91.6331 14.0248 91.4359Z" fill="#FB8500"/>
<path d="M22.01 83.5912C22.7189 80.9969 25.4655 80.1509 27.5516 79.4886C28.7496 79.1082 29.9864 78.7469 31.041 77.8572C31.5578 77.4211 31.9952 76.8929 32.3257 76.3023C32.432 76.1123 33.0942 74.8073 32.8374 74.6004C33.4555 75.0984 32.4009 77.0342 31.9927 77.7146C31.5507 78.4512 30.5592 79.7611 29.7514 80.0971C30.5798 80.2013 32.091 79.3493 32.8696 78.9087C34.0717 78.2283 35.6556 77.2099 36.6897 76.2042C39.0089 73.9486 39.8826 70.6975 39.1874 68.0502C37.7959 62.7515 30.4893 61.3977 26.3142 66.815C25.199 68.262 24.5798 69.9305 24.4678 71.6018C24.3619 73.1837 24.6661 75.3783 22.8453 76.4537C23.9599 76.6295 26.0757 74.8624 26.7805 73.6719C27.0992 73.1336 27.3962 72.5185 27.5112 71.937C27.6273 71.3496 27.6646 70.9212 27.7071 70.4438C27.888 70.9733 27.8314 70.7038 27.9237 71.3432C27.9939 71.8298 27.8273 72.6621 27.6731 73.3053C27.4042 74.426 26.0461 76.4631 25.1882 77.2699C23.2901 79.0549 21.4339 81.0675 22.01 83.5912Z" fill="#FFB703"/>
<path d="M63.3705 32.1716C63.975 32.1126 64.4431 31.7807 64.416 31.4304C64.3889 31.0801 63.8768 30.8439 63.2723 30.9029C62.6678 30.9619 62.1997 31.2938 62.2268 31.6441C62.2539 31.9944 62.7659 32.2306 63.3705 32.1716Z" fill="white"/>
<path d="M58.565 54.0639C58.565 54.0639 59.9057 60.2125 58.84 65.5558C57.4885 72.3362 51.1741 82.0746 49.8788 81.8666C48.5829 81.6593 50.2159 77.1397 49.956 73.5818C49.5268 67.6966 46.6886 65.912 46.6886 65.912L58.565 54.0639Z" fill="#FB8500"/>
<path d="M43.5225 69.9688L31.6514 59.5962L29.8635 61.6456L41.7347 72.0182L43.5225 69.9688Z" fill="#FFB703"/>
<path d="M45.3336 42.3045C45.3336 42.3045 39.0361 42.2819 34.0305 44.4421C27.6784 47.1824 19.471 55.3913 19.9458 56.6134C20.42 57.8362 24.5007 55.2942 28.0369 54.8032C33.8858 53.9903 36.2264 56.3897 36.2264 56.3897L45.3336 42.3045Z" fill="#FB8500"/>
<path d="M49.2777 30.1128C36.1981 45.1066 31.8489 56.9943 30.863 59.1518L44.1675 70.7761C46.1708 69.5076 57.3533 63.5902 70.4328 48.5964C76.1974 41.9882 79.7538 34.1295 81.6744 27.1759L68.9679 16.074C62.3426 18.9171 55.0422 23.5046 49.2777 30.1128Z" fill="white" stroke="#FB8500" stroke-width="2.3402" stroke-miterlimit="10"/>
<path d="M80.612 12.6453C77.4579 13.0756 73.3611 14.1938 68.9671 16.0797L70.2579 17.9274C72.6073 21.2901 75.7196 24.0385 79.3456 25.9527L81.6735 27.1815C82.9476 22.5697 83.5018 18.3562 83.5022 15.1705C83.5023 13.6154 82.1515 12.4352 80.612 12.6453Z" fill="#FB8500" stroke="#FB8500" stroke-width="2.3402" stroke-miterlimit="10"/>
<path d="M46.8266 54.3529L46.8231 54.3498L46.8198 54.347C45.9225 53.5629 44.1734 54.3592 42.6304 56.1281C41.0871 57.8973 32.1093 68.5914 33.4058 69.7242C33.4069 69.7251 33.408 69.7261 33.4092 69.7271C33.4103 69.7281 33.4114 69.729 33.4127 69.7301C34.7083 70.8621 44.0847 60.5164 45.628 58.7472C47.1711 56.9783 47.7238 55.1368 46.8266 54.3529Z" fill="#FB8500"/>
<path d="M67.7087 30.3537C65.1924 28.1552 61.3347 28.4557 59.0934 31.025C56.8525 33.5939 57.0756 37.4599 59.5919 39.6584C62.1085 41.8572 65.9663 41.5568 68.2072 38.9879C70.4485 36.4186 70.2253 32.5526 67.7087 30.3537Z" fill="#459EBD" stroke="#023047" stroke-width="2.3402" stroke-miterlimit="10"/>
</svg>
