<svg width="1093" height="449" viewBox="0 0 1093 449" fill="none" xmlns="http://www.w3.org/2000/svg">
<path d="M3 349.832C3 349.832 135.168 461.898 228.538 444.08C309.648 428.601 341.652 331.873 416.874 296.743C519.567 248.783 637.686 311.268 741.23 265.326C831.808 225.137 849.349 113.003 919.103 52.5879C990.547 -9.29177 1090 4.2565 1090 4.2565" stroke="#1A2A6C" stroke-width="5" stroke-linecap="round"/>
<path d="M114.692 407.884C115.931 406.525 118.07 406.525 119.309 407.884L122.024 410.862C122.46 411.339 123.033 411.67 123.664 411.808L127.601 412.671C129.397 413.064 130.467 414.917 129.909 416.67L128.688 420.51C128.492 421.126 128.492 421.788 128.688 422.404L129.909 426.244C130.467 427.996 129.397 429.849 127.601 430.243L123.664 431.105C123.033 431.243 122.46 431.574 122.024 432.052L119.309 435.029C118.07 436.389 115.931 436.389 114.692 435.029L111.977 432.052C111.541 431.574 110.968 431.243 110.337 431.105L106.401 430.243C104.604 429.849 103.534 427.996 104.092 426.244L105.313 422.404C105.509 421.788 105.509 421.126 105.313 420.51L104.092 416.67C103.534 414.917 104.604 413.064 106.401 412.671L110.337 411.808C110.968 411.67 111.541 411.339 111.977 410.862L114.692 407.884Z" fill="#BA68C8" fill-opacity="0.75"/>
<path d="M108.214 411.4C108.608 409.604 110.46 408.534 112.213 409.092L116.053 410.313C116.669 410.509 117.331 410.509 117.947 410.313L121.787 409.092C123.54 408.534 125.392 409.604 125.786 411.4L126.648 415.337C126.787 415.968 127.117 416.541 127.595 416.977L130.573 419.692C131.932 420.931 131.932 423.07 130.573 424.309L127.595 427.024C127.117 427.46 126.787 428.033 126.648 428.664L125.786 432.6C125.392 434.397 123.54 435.467 121.787 434.909L117.947 433.688C117.331 433.492 116.669 433.492 116.053 433.688L112.213 434.909C110.46 435.467 108.608 434.397 108.214 432.6L107.352 428.664C107.213 428.033 106.883 427.46 106.405 427.024L103.427 424.309C102.068 423.07 102.068 420.931 103.427 419.692L106.405 416.977C106.883 416.541 107.213 415.968 107.352 415.337L108.214 411.4Z" fill="#BA68C8" fill-opacity="0.55"/>
<path d="M400.692 291.884C401.931 290.525 404.07 290.525 405.309 291.884L408.024 294.862C408.46 295.339 409.033 295.67 409.664 295.808L413.601 296.671C415.397 297.064 416.467 298.917 415.909 300.67L414.688 304.51C414.492 305.126 414.492 305.788 414.688 306.404L415.909 310.244C416.467 311.996 415.397 313.849 413.601 314.243L409.664 315.105C409.033 315.243 408.46 315.574 408.024 316.052L405.309 319.029C404.07 320.389 401.931 320.389 400.692 319.029L397.977 316.052C397.541 315.574 396.968 315.243 396.337 315.105L392.401 314.243C390.604 313.849 389.534 311.996 390.092 310.244L391.313 306.404C391.509 305.788 391.509 305.126 391.313 304.51L390.092 300.67C389.534 298.917 390.604 297.064 392.401 296.671L396.337 295.808C396.968 295.67 397.541 295.339 397.977 294.862L400.692 291.884Z" fill="#BA68C8" fill-opacity="0.75"/>
<path d="M394.214 295.4C394.608 293.604 396.46 292.534 398.213 293.092L402.053 294.313C402.669 294.509 403.331 294.509 403.947 294.313L407.787 293.092C409.54 292.534 411.392 293.604 411.786 295.4L412.648 299.337C412.787 299.968 413.117 300.541 413.595 300.977L416.573 303.692C417.932 304.931 417.932 307.07 416.573 308.309L413.595 311.024C413.117 311.46 412.787 312.033 412.648 312.664L411.786 316.6C411.392 318.397 409.54 319.467 407.787 318.909L403.947 317.688C403.331 317.492 402.669 317.492 402.053 317.688L398.213 318.909C396.46 319.467 394.608 318.397 394.214 316.6L393.352 312.664C393.213 312.033 392.883 311.46 392.405 311.024L389.427 308.309C388.068 307.07 388.068 304.931 389.427 303.692L392.405 300.977C392.883 300.541 393.213 299.968 393.352 299.337L394.214 295.4Z" fill="#BA68C8" fill-opacity="0.55"/>
<path d="M714.692 259.884C715.931 258.525 718.07 258.525 719.309 259.884L722.024 262.862C722.46 263.339 723.033 263.67 723.664 263.808L727.601 264.671C729.397 265.064 730.467 266.917 729.909 268.67L728.688 272.51C728.492 273.126 728.492 273.788 728.688 274.404L729.909 278.244C730.467 279.996 729.397 281.849 727.601 282.243L723.664 283.105C723.033 283.243 722.46 283.574 722.024 284.052L719.309 287.029C718.07 288.389 715.931 288.389 714.692 287.029L711.977 284.052C711.541 283.574 710.968 283.243 710.337 283.105L706.401 282.243C704.604 281.849 703.534 279.996 704.092 278.244L705.313 274.404C705.509 273.788 705.509 273.126 705.313 272.51L704.092 268.67C703.534 266.917 704.604 265.064 706.401 264.671L710.337 263.808C710.968 263.67 711.541 263.339 711.977 262.862L714.692 259.884Z" fill="#BA68C8" fill-opacity="0.75"/>
<path d="M708.214 263.4C708.608 261.604 710.46 260.534 712.213 261.092L716.053 262.313C716.669 262.509 717.331 262.509 717.947 262.313L721.787 261.092C723.54 260.534 725.392 261.604 725.786 263.4L726.648 267.337C726.787 267.968 727.117 268.541 727.595 268.977L730.573 271.692C731.932 272.931 731.932 275.07 730.573 276.309L727.595 279.024C727.117 279.46 726.787 280.033 726.648 280.664L725.786 284.6C725.392 286.397 723.54 287.467 721.787 286.909L717.947 285.688C717.331 285.492 716.669 285.492 716.053 285.688L712.213 286.909C710.46 287.467 708.608 286.397 708.214 284.6L707.352 280.664C707.213 280.033 706.883 279.46 706.405 279.024L703.427 276.309C702.068 275.07 702.068 272.931 703.427 271.692L706.405 268.977C706.883 268.541 707.213 267.968 707.352 267.337L708.214 263.4Z" fill="#BA68C8" fill-opacity="0.55"/>
<path d="M962.692 8.88386C963.931 7.52474 966.07 7.52474 967.309 8.88386L970.024 11.8615C970.46 12.3393 971.033 12.6701 971.664 12.8085L975.601 13.6708C977.397 14.0644 978.467 15.917 977.909 17.6698L976.688 21.5097C976.492 22.1258 976.492 22.7875 976.688 23.4036L977.909 27.2436C978.467 28.9963 977.397 30.849 975.601 31.2426L971.664 32.1049C971.033 32.2432 970.46 32.5741 970.024 33.0518L967.309 36.0295C966.07 37.3886 963.931 37.3886 962.692 36.0295L959.977 33.0518C959.541 32.5741 958.968 32.2432 958.337 32.1049L954.401 31.2426C952.604 30.849 951.534 28.9963 952.092 27.2436L953.313 23.4036C953.509 22.7875 953.509 22.1258 953.313 21.5097L952.092 17.6698C951.534 15.917 952.604 14.0644 954.401 13.6708L958.337 12.8085C958.968 12.6701 959.541 12.3393 959.977 11.8615L962.692 8.88386Z" fill="#BA68C8" fill-opacity="0.75"/>
<path d="M956.214 12.4003C956.608 10.6037 958.46 9.53409 960.213 10.0915L964.053 11.3128C964.669 11.5088 965.331 11.5088 965.947 11.3128L969.787 10.0915C971.54 9.53409 973.392 10.6037 973.786 12.4003L974.648 16.3365C974.787 16.968 975.117 17.5411 975.595 17.9767L978.573 20.6916C979.932 21.9307 979.932 24.07 978.573 25.3092L975.595 28.024C975.117 28.4596 974.787 29.0327 974.648 29.6642L973.786 33.6004C973.392 35.397 971.54 36.4666 969.787 35.9092L965.947 34.6879C965.331 34.4919 964.669 34.4919 964.053 34.6879L960.213 35.9092C958.46 36.4666 956.608 35.397 956.214 33.6004L955.352 29.6642C955.213 29.0327 954.883 28.4596 954.405 28.024L951.427 25.3092C950.068 24.07 950.068 21.9307 951.427 20.6916L954.405 17.9767C954.883 17.5411 955.213 16.968 955.352 16.3365L956.214 12.4003Z" fill="#BA68C8" fill-opacity="0.55"/>
</svg>
